# xmcd CD database file
#
# Track frame offsets:
#	150
#	32488
#	52118
#	84219
#	129043
#	154054
#	192147
#
# Disc length: 2792 seconds
#
# Revision: 0
# Processed by: cddbd v1.5.2PL0 Copyright (c) Steve Scherf et al.
# Submitted via: CDex 1.51
#
DISCID=480ae607
DTITLE=PGR - Enthuzjazzm
DYEAR=2011
DGENRE=Jazz
TTITLE0=Majazzur
TTITLE1=Israelites Crossing the Read Sea
TTITLE2=Stella by (Middle Eastern) Starlight
TTITLE3=Abidan
TTITLE4=Cuban Report
TTITLE5=Hiob
TTITLE6=Hekhal
EXTD=YEAR: 2011
EXTT0=
EXTT1=
EXTT2=
EXTT3=
EXTT4=
EXTT5=
EXTT6=
PLAYORDER=
